<svg t="1686448126917" class="icon" viewBox="0 0 1024 1024" version="1.1" xmlns="http://www.w3.org/2000/svg" p-id="3573" width="200" height="200"><path d="M59.97150815 306.25336889c8.95658667-3.36175408 17.73112889-7.77936592 27.33093926-8.89590519 1.20149333 11.97852445-1.14081185 24.15122963-0.9951763 36.22684445-1.28644741 81.84718222 4.34479408 163.69436445 13.19215407 245.00754963 48.39954963-7.09973333 97.74573037 3.65302518 142.86848 21.09288297 13.39847111 5.5826963 26.71198815 11.99066075 37.93806223 21.32347258 6.12882963 5.35210667 12.45184 12.18484148 12.25765926 20.88656592 0.95876741 18.28939852-11.39598222 33.65394963-24.40609185 45.04993186-22.03951408 18.43503408-48.76363852 30.37714963-75.96107852 39.05460148-41.74885925 12.17270518-85.54875259 17.7068563-128.99669333 16.43254519-12.69456592-138.69359408-26.36003555-277.93332148-54.79537779-414.5152 17.34276741-6.83273482 34.49135408-14.17519408 51.56712297-21.66328889m74.52899555 316.00488296c2.85202963 25.75322075 6.95409778 51.50644148 10.86198519 77.11402667 18.53212445-12.56106667 36.42102518-26.10517333 54.23710814-39.6614163 3.53166222-2.74280297 7.06332445-5.5826963 9.75758222-9.1871763-4.36906667-3.34961778-9.8425363-4.70888297-14.76987258-7.00264295-19.78216297-7.69441185-39.52791703-15.86213925-60.08680297-21.26279112zM510.77423408 327.78315852c26.25080889-9.87894518 51.39721482-23.36237037 78.6189274-30.30433185 0.18204445 0.81313185 0.54613333 2.42725925 0.71604149 3.24039111-4.76956445 92.7455763 1.72335408 185.72174222 11.83288888 277.8847763 25.43767703-4.23556741 51.39721482-2.01462518 76.67712 2.2573511 25.94740148 4.64820148 51.51857778 11.94211555 75.54844445 22.87691852 13.31351703 6.39582815 27.00325925 13.54410667 36.3482074 25.34058667 7.84004741 10.37653333 4.53897482 24.85513482-1.00731259 35.52293926-8.92017778 15.64368592-23.47159703 27.11248592-38.55701333 36.48170667-39.10314667 23.81141333-84.58998518 34.43067259-129.70059853 39.16382815-18.44717037 2.29376-37.02784 2.77921185-55.59637333 2.18453333-11.77220741-130.62295703-25.08572445-261.52504889-49.75881481-390.55815111-1.11653925-8.16772741-4.52683852-15.85000297-5.12151703-24.09054815m126.16893629 294.47509333c-0.13349925 4.12634075 0.63108741 8.2041363 1.3228563 12.26979556 4.12634075 21.59047111 5.24288 43.72707555 9.41776592 65.26900148 16.0441837-10.89839408 31.49368889-22.64632889 46.96746666-34.33358222 5.87396741-4.79383703 12.51252148-8.89590518 17.19713186-14.96405334-7.16041482-4.69674667-15.55873185-7.01477925-23.36237036-10.41294222-17.0272237-6.33514667-33.90881185-13.37419852-51.54285038-17.82821926zM344.55552 351.86157037c12.74311111-2.6335763 25.76535703-3.71370667 38.72692148-4.83024592 5.14578963-0.54613333 10.43721482-0.18204445 15.34027852 1.5898548 7.45168592 115.63463111 16.82090667 231.17217185 27.2095763 346.60048593-12.7916563-1.27431111-25.65613037-1.00731259-38.49633185-1.74762666-11.09257482-114.08118518-21.55406222-228.74491259-42.78044445-341.61246815zM846.94964148 351.87370667c17.69472-2.66998518 36.25111703-6.8691437 53.98224593-3.08261926 7.84004741 115.54967703 16.71168 231.08721778 27.35521184 346.43057777-12.7916563-1.27431111-25.64399408-1.01944889-38.47205925-1.73549036-11.18966518-114.09332148-21.46910815-228.81773037-42.86539852-341.61246815zM304.32369778 431.82762667c8.27695408-2.08744297 17.50053925-2.12385185 25.71681185 0.15777185 2.45153185 22.86478222 5.46133333 45.72956445 7.08759704 68.67930073-7.97354667 0.36408889-15.94709333 0.53399703-23.87209482 1.54130964-3.2646637-23.39877925-6.12882963-46.91892148-8.93231407-70.37838222zM806.77850075 431.85189925c7.41527703-2.31803259 15.47377778-1.49276445 23.10750814-0.76458666 3.66516148-0.07281778 2.97339259 4.2719763 3.45884444 6.74778074 1.6384 20.97152 4.87879111 41.82167703 6.22592 62.80533334-7.97354667 0.41263408-15.94709333 0.54613333-23.87209481 1.56558222-3.21611852-23.39877925-6.11669333-46.90678518-8.92017777-70.35410964zM271.72560592 438.16277333c7.71868445-1.21362963 15.43736889-2.99766518 23.26528-3.10689185 3.67729778 22.45214815 8.1798637 45.15915852 8.24054519 67.96325927-6.40796445 1.08013037-12.65815703 2.88843852-19.02971259 4.15061333-4.00497778-23.02255408-8.89590518-45.93588148-12.4761126-69.00698075zM774.16827259 438.16277333c7.70654815-1.21362963 15.43736889-2.99766518 23.2774163-3.11902815 3.96856889 22.42787555 7.76722963 45.19556741 8.07063703 67.99966815-6.34728297 1.09226667-12.54893037 2.87630222-18.85980444 4.12634075-4.01711408-23.02255408-8.87163259-45.93588148-12.48824889-69.00698075zM434.64324741 439.78903703c7.8521837 0.06068148 15.82573037-1.85685333 23.61723259-0.59467851 0.36408889 22.54923852 2.56075852 45.25624889 0.12136297 67.74480593-6.10455703 2.00248889-12.68242963 0.92235852-18.92048594 2.3058963-1.23790222-23.18032592-3.71370667-46.27569778-4.81810962-69.45602372zM467.27774815 438.05354667c8.75026963-0.55826963 17.52481185 0.16990815 26.16585482 1.55344592-0.3155437 22.82837333-0.38836148 45.68101925-0.06068149 68.52152889-7.92500148 0.65536-15.85000297-0.29127111-23.71432296-1.12867556-1.84471703-22.9497363-0.87381333-45.98442667-2.39085037-68.94629925zM936.97668741 439.67981037c7.98568297-0.25486222 16.01991111-1.82044445 23.99345777-0.75245037 0.10922667 22.79196445 2.73066667 45.8630637-0.41263407 68.52152889-6.18951111 0.9709037-12.48824889 0.65536-18.65348741 1.79617186-1.12867555-23.22887111-3.73797925-46.36065185-4.92733629-69.56525038zM969.64759703 438.04141037c8.78667852-0.53399703 17.59762963 0.19418075 26.28721779 1.56558222-0.36408889 22.82837333-0.43690667 45.68101925-0.08495407 68.52152889-7.82791111 0.72817778-15.64368592-0.54613333-23.45946075-0.71604148-2.26948741-23.05896297-1.08013037-46.28783408-2.74280297-69.37106963zM291.82331259 528.42040889c15.94709333-2.92484741 32.48886518-6.96623408 48.67868444-3.88361481 2.39085037 7.93713778 3.16757333 16.25050075 4.51470222 24.40609184 7.28177778 52.62298075 11.66298075 105.58577778 17.47626667 158.37866667-13.4470163 2.12385185-27.16103111 2.42725925-40.63232 4.61179259-11.76007111-60.15962075-23.81141333-120.29496889-35.32875851-180.49099851-0.37622518-2.76707555 3.56807111-2.24521482 5.29142518-3.02193778zM789.35077925 529.91317333c17.52481185-3.89575111 35.75352889-8.42258963 53.7516563-5.60696888 2.50007703 8.64104297 3.49525333 17.63403852 4.85451853 26.5056711 6.96623408 52.06471111 11.71152592 104.39642075 17.10004147 156.6431763-13.53197037 1.79617185-27.23384889 2.37871408-40.75368296 4.49042963-10.75275852-55.42646518-21.97883259-110.75584-32.51313777-166.23085037-0.9951763-5.21860741-2.70639408-10.43721482-2.43939557-15.80145778zM439.44922075 531.85498075c17.91317333-1.37140148 36.66375111-4.40547555 54.17642666 1.00731258 4.01711408 60.97275259 2.29376 122.22464 2.88843851 183.31875556-13.34992592 0.24272592-26.71198815 1.21362963-40.07405037 0.80099556-5.8861037-61.67665778-12.12416-123.36545185-16.9908148-185.1270637zM941.78266075 531.72148148c17.92530963-1.72335408 36.73656889-4.11420445 54.26138073 1.12867555 4.22343111 61.06984297 1.78403555 122.41882075 3.20398222 183.59789038-13.47128889-0.23058963-26.90616889 1.01944889-40.36532148 0.53399704-5.89824-61.71306667-12.03920592-123.47467852-17.10004147-185.26056297z" p-id="3574"></path></svg>